<svg width="96" height="96" xmlns="http://www.w3.org/2000/svg" xmlns:xlink="http://www.w3.org/1999/xlink" xml:space="preserve" overflow="hidden"><g transform="translate(-592 -372)"><path d="M656 402C656 410.837 648.837 418 640 418 631.163 418 624 410.837 624 402 624 393.163 631.163 386 640 386 648.837 386 656 393.163 656 402Z" fill="#843C0C"/><path d="M672 454 672 438C672 435.6 670.8 433.2 668.8 431.6 664.4 428 658.8 425.6 653.2 424 649.2 422.8 644.8 422 640 422 635.6 422 631.2 422.8 626.8 424 621.2 425.6 615.6 428.4 611.2 431.6 609.2 433.2 608 435.6 608 438L608 454 672 454Z" fill="#843C0C"/></g></svg>